{
  "accessors": [
    {
      "bufferView": 1,
      "componentType": 5126,
      "count": 265,
      "max": [
        0.86180001497268677,
        3.6448299884796143,
        0.92663002014160156
      ],
      "min": [
        -0.86180001497268677,
        1.6483800411224365,
        -1.2059899568557739
      ],
      "type": "VEC3"
    },
    {
      "bufferView": 1,
      "byteOffset": 3180,
      "componentType": 5126,
      "count": 265,
      "max": [
        1,
        1,
        0.99998080730438232
      ],
      "min": [
        -1,
        -0.99879878759384155,
        -0.99974250793457031
      ],
      "type": "VEC3"
    },
    {
      "bufferView": 0,
      "componentType": 5125,
      "count": 456,
      "max": [
        264
      ],
      "min": [
        0
      ],
      "type": "SCALAR"
    },
    {
      "bufferView": 1,
      "byteOffset": 6360,
      "componentType": 5126,
      "count": 436,
      "max": [
        0.87790000438690186,
        3.6448299884796143,
        0.95718002319335938
      ],
      "min": [
        -0.87790000438690186,
        5.999999848427251e-05,
        -1.2059899568557739
      ],
      "type": "VEC3"
    },
    {
      "bufferView": 1,
      "byteOffset": 11592,
      "componentType": 5126,
      "count": 436,
      "max": [
        1,
        0.92992502450942993,
        0.99978846311569214
      ],
      "min": [
        -1,
        -1,
        -0.99978846311569214
      ],
      "type": "VEC3"
    },
    {
      "bufferView": 0,
      "byteOffset": 1824,
      "componentType": 5125,
      "count": 672,
      "max": [
        435
      ],
      "min": [
        0
      ],
      "type": "SCALAR"
    }
  ],
  "asset": {
    "extras": {
      "author": "Algirdas Lalys (https://sketchfab.com/alalys)",
      "license": "CC-BY-4.0 (http://creativecommons.org/licenses/by/4.0/)",
      "source": "https://sketchfab.com/3d-models/kitchen-chair-913530823cd94f13b7e8f6fc60e4f93b",
      "title": "Kitchen Chair"
    },
    "generator": "Sketchfab-6.30.0",
    "version": "2.0"
  },
  "bufferViews": [
    {
      "buffer": 0,
      "byteLength": 4512,
      "byteOffset": 0,
      "name": "floatBufferViews",
      "target": 34963
    },
    {
      "buffer": 0,
      "byteLength": 16824,
      "byteOffset": 4512,
      "byteStride": 12,
      "name": "floatBufferViews",
      "target": 34962
    }
  ],
  "buffers": [
    {
      "byteLength": 21336,
      "uri": "scene.bin"
    }
  ],
  "materials": [
    {
      "doubleSided": true,
      "emissiveFactor": [
        0,
        0,
        0
      ],
      "name": "Chair2_Material",
      "pbrMetallicRoughness": {
        "baseColorFactor": [
          0.034688189625740051,
          0.47888177633285522,
          0.80000007152557373,
          1
        ],
        "metallicFactor": 0,
        "roughnessFactor": 0.59999999999999998
      }
    },
    {
      "doubleSided": true,
      "emissiveFactor": [
        0,
        0,
        0
      ],
      "name": "Chair2_Details",
      "pbrMetallicRoughness": {
        "baseColorFactor": [
          0.74048143625259399,
          0.80000007152557373,
          0.71956551074981689,
          1
        ],
        "metallicFactor": 0,
        "roughnessFactor": 0.59999999999999998
      }
    }
  ],
  "meshes": [
    {
      "name": "Chair2_0",
      "primitives": [
        {
          "attributes": {
            "NORMAL": 1,
            "POSITION": 0
          },
          "indices": 2,
          "material": 0,
          "mode": 4
        }
      ]
    },
    {
      "name": "Chair2_1",
      "primitives": [
        {
          "attributes": {
            "NORMAL": 4,
            "POSITION": 3
          },
          "indices": 5,
          "material": 1,
          "mode": 4
        }
      ]
    }
  ],
  "nodes": [
    {
      "children": [
        1
      ],
      "name": "RootNode (gltf orientation matrix)",
      "rotation": [
        -0.70710678118654746,
        -0,
        -0,
        0.70710678118654757
      ]
    },
    {
      "children": [
        2
      ],
      "name": "RootNode (model correction matrix)"
    },
    {
      "children": [
        3
      ],
      "name": "Root"
    },
    {
      "children": [
        4,
        5
      ],
      "matrix": [
        0.26500000000000001,
        0,
        0,
        0,
        0,
        0,
        0.26500000000000001,
        0,
        0,
        -0.26500000000000001,
        0,
        0,
        0,
        0,
        0,
        1
      ],
      "name": "Chair2"
    },
    {
      "mesh": 0,
      "name": "Chair2_0"
    },
    {
      "mesh": 1,
      "name": "Chair2_1"
    }
  ],
  "scene": 0,
  "scenes": [
    {
      "name": "OSG_Scene",
      "nodes": [
        0
      ]
    }
  ]
}

